# xmcd
# 
# Track frame offsets:
#     150
#     17932
#     37286
#     46887
#     78879
#     107260
#     139202
#     206547
#     222990
#     248968
#     267278
#     280256
# 
# Disc length: 4262
# 
# Revision: 1
# Processed by: cddbd v1.5.2PL0 Copyright (c) Steve Scherf et al.
# Submitted via: fre:ac v1.0.31
# 
DISCID=ae10a40c
DTITLE=Bakerloo - Bakerloo
DYEAR=1969
DGENRE=Rock
TTITLE0=Big Bear Ffolly
TTITLE1=Bring It on Home
TTITLE2=Drivin' Bachwards
TTITLE3=Last Blues
TTITLE4=Gang Bang
TTITLE5=This Worried Feeling
TTITLE6=Son of Moonshine
TTITLE7=Once Upon a Time
TTITLE8=This Worried Feeling (alternate take)
TTITLE9=Georgia
TTITLE10=Train
TTITLE11=Son of Moonshine Part One (alternate take)
EXTD=YEAR: 1969
EXTT0=
EXTT1=
EXTT2=
EXTT3=
EXTT4=
EXTT5=
EXTT6=
EXTT7=
EXTT8=
EXTT9=
EXTT10=
EXTT11=
PLAYORDER=
